<svg xmlns="http://www.w3.org/2000/svg" version="1.1" xmlns:xlink="http://www.w3.org/1999/xlink" xmlns:svgjs="http://svgjs.dev/svgjs" width="512" height="512"><svg id="SvgjsSvg1063" data-name="Layer 2" xmlns="http://www.w3.org/2000/svg" viewBox="0 0 512 512">
  <defs>
    <style>
      .cls-1 {
        fill: #bcbdbe;
      }

      .cls-1, .cls-2 {
        stroke: #424242;
        stroke-miterlimit: 10;
        stroke-width: .5px;
      }

      .cls-3 {
        fill: none;
        stroke-width: 0px;
      }

      .cls-2 {
        fill: #44a7e5;
      }
    </style>
  </defs>
  <g id="SvgjsG1062" data-name="Layer 1">
    <g>
      <path class="cls-2" d="M434.52,238.1c-9.76-23.19-23.73-44.02-41.52-61.9-17.19-17.27-37.11-30.96-59.24-40.71l15.17,28.88v.62c49.23,31.14,82.01,86.25,82.01,148.92,0,9.07-.69,17.98-2.02,26.69-12.82,84.34-85.48,149.15-172.92,149.15-96.46,0-174.94-78.88-174.94-175.83,0-63.13,33.27-118.6,83.13-149.62l15.44-29.4c-22.69,9.78-43.08,23.68-60.63,41.31-17.8,17.88-31.76,38.71-41.52,61.9-10.11,24.02-15.23,49.52-15.23,75.81s5.12,51.79,15.23,75.81c9.75,23.19,23.72,44.02,41.52,61.9,17.79,17.88,38.51,31.92,61.58,41.73,23.89,10.16,49.27,15.3,75.42,15.3s51.53-5.15,75.42-15.3c23.07-9.81,43.79-23.85,61.59-41.73,17.79-17.88,31.76-38.71,41.52-61.9,10.1-24.02,15.23-49.52,15.23-75.81s-5.12-51.79-15.23-75.81Z"></path>
      <path class="cls-1" d="M368.86,436.74c-5.4,4.97-11.13,9.58-17.14,13.8-.23-.09-.45-.19-.67-.29-19.99-8.45-38.35-20.81-54.15-36.69-18.13-18.23-31.66-39.85-39.98-63.45-.12.36-.25.72-.37,1.07-.13-.36-.25-.72-.38-1.07-.28.79-.56,1.58-.85,2.37-8.38,22.68-21.6,43.46-39.13,61.08-15.8,15.88-34.16,28.24-54.15,36.69-.22.1-.45.2-.67.29-6.01-4.22-11.74-8.83-17.14-13.8,52.69-17.82,92.46-64.14,101.1-120.63.97-6.39,1.33-12.85,1.25-19.31,0-.68-.01-1.35-.01-2.03V14.08l9.5-11.04,10.46,11.04v280.69c0,.68,0,1.35-.01,2.03-.08,6.46.28,12.93,1.25,19.31,8.64,56.49,48.41,102.81,101.1,120.63Z"></path>
      <path class="cls-1" d="M292.51,68.5v218.05c-.03,1.15-.04,2.29-.04,3.44s.02,2.29.04,3.44c1.47,58.26,40.34,107.34,93.33,123.85-4.26,5.39-8.84,10.51-13.72,15.33-20.09-7.51-38.51-19.35-54.12-35.04-10.16-10.21-18.7-21.62-25.48-33.91-12.31-22.29-20.19-45.73-20.19-71.92V30.06l20.19,38.45Z"></path>
      <path class="cls-2" d="M319.01,118.98v179.07c0,7.96,1.02,15.9,3.17,23.56,10.48,37.36,41.24,66.25,79.52,73.85-3.29,5.87-6.92,11.52-10.88,16.92-20.81-5.43-39.89-16.35-55.49-32.04-6.2-6.23-11.66-13.03-16.32-20.25-12.7-19.68-20.19-41.06-20.19-65.07V80.52l20.19,38.46Z"></path>
      <path class="cls-2" d="M421.47,346.22c-1.23,6.39-2.81,12.66-4.74,18.78-18.75-1.16-35.57-9.6-47.69-22.53-12.09-12.9-20.19-29.78-20.19-48.85v-117.82l20.19,38.46v79.17c0,21.82,13.19,41.67,33.5,49.39,5.8,2.21,12.07,3.41,18.63,3.41.1,0,.2,0,.3,0Z"></path>
      <path class="cls-2" d="M413.9,368.7c-2.31,6.34-5,12.5-8.05,18.46-25.23-2.54-47.46-15.53-62.3-34.58-11.38-14.61-18.43-32.79-19.18-52.56v-170.84l19.18,36.53v130.64c0,24.72,12.31,48,33.1,61.22,10.81,6.88,23.57,10.93,37.25,11.13Z"></path>
      <path class="cls-1" d="M240.75,30.06v261.68c0,26.19-7.87,49.63-20.19,71.92-6.78,12.29-15.32,23.69-25.48,33.91-15.61,15.69-34.03,27.54-54.12,35.04-4.88-4.82-9.46-9.94-13.72-15.33,52.98-16.52,91.85-65.6,93.33-123.85.03-1.15.04-2.29.04-3.44s-.02-2.29-.04-3.44V68.5l20.19-38.45Z"></path>
      <path class="cls-2" d="M214.25,80.52v214.49c0,24.01-7.49,45.39-20.19,65.07-4.65,7.23-10.12,14.02-16.32,20.25-15.6,15.69-33.92,25.17-54.73,30.6-3.96-5.4-8.35-9.61-11.64-15.48,38.28-7.6,69.05-36.5,79.52-73.85,2.14-7.66,3.17-15.6,3.17-23.56V118.98l20.19-38.46Z"></path>
      <path class="cls-2" d="M92.78,346.2c1.23,6.39,1.64,12.68,3.56,18.8,18.75-1.16,35.57-9.6,47.69-22.53,12.09-12.9,20.19-29.78,20.19-48.85v-117.82l-20.19,38.46v79.17c0,21.82-13.19,41.67-33.49,49.39-5.8,2.21-10.9,3.39-17.46,3.39-.1,0-.2,0-.3,0Z"></path>
      <path class="cls-2" d="M99.17,368.7c2.31,6.34,5,12.5,8.05,18.46,25.23-2.54,47.46-15.53,62.3-34.58,11.38-14.61,18.43-32.79,19.18-52.56v-170.84l-19.18,36.53v130.64c0,24.72-12.31,48-33.1,61.22-10.81,6.88-23.57,10.93-37.25,11.13Z"></path>
      <rect class="cls-3" width="512" height="512"></rect>
    </g>
  </g>
</svg><style>@media (prefers-color-scheme: light) { :root { filter: none; } }
@media (prefers-color-scheme: dark) { :root { filter: none; } }
</style></svg>